<?xml version="1.0" encoding="iso-8859-1"?>
<!-- Uploaded to: SVG Repo, www.svgrepo.com, Generator: SVG Repo Mixer Tools -->
<!DOCTYPE svg PUBLIC "-//W3C//DTD SVG 1.1//EN" "http://www.w3.org/Graphics/SVG/1.1/DTD/svg11.dtd">
<svg fill="#000000" height="800px" width="800px" version="1.1" id="Capa_1" xmlns="http://www.w3.org/2000/svg" xmlns:xlink="http://www.w3.org/1999/xlink" 
	 viewBox="0 0 465.735 465.735" xml:space="preserve">
<path d="M465.362,155.545c-0.799-1.952-2.723-3.205-4.844-3.101c-86.166,3.732-116.406,47.898-117.651,49.776
	c-0.581,0.876-0.871,1.913-0.829,2.964c1.631,40.543-11.809,60.663-25.402,70.643l-3.83-19.137c-0.367-1.837-1.73-3.315-3.532-3.827
	c-1.801-0.513-3.738,0.024-5.021,1.392l-12.323,13.163c-1.964,0.406-7.429,1.629-9.376,2.097l-16.759-6.661
	c-1.74-0.691-3.723-0.353-5.135,0.879c-1.411,1.232-2.016,3.15-1.565,4.969l4.688,18.944c-16.548-3.238-37.277-15.719-53.073-53.094
	c-0.409-0.969-1.113-1.783-2.012-2.328c-1.183-0.717-19.029-11.187-51.017-11.475c17.347-56.31,69.459-95.084,128.982-95.084
	c10.756,0,21.488,1.278,31.901,3.801c2.248,0.547,4.576-0.523,5.629-2.584c1.053-2.06,0.556-4.572-1.203-6.075
	c-28.785-24.614-63.461-39.413-100.802-43.144c6.329-6.171,12.467-8.558,12.951-8.738c1.981-0.721,3.298-2.607,3.29-4.717
	c-0.008-2.108-1.338-3.985-3.324-4.692c-49.57-17.63-77.081,0.615-78.227,1.401c-0.867,0.594-1.525,1.445-1.88,2.435
	c-5.936,16.523-14.657,27.17-25.473,31.231l1.552-8.185c0.349-1.841-0.36-3.722-1.837-4.874c-1.478-1.153-3.477-1.38-5.175-0.596
	l-9.213,4.264c-0.996-0.178-3.381-0.577-4.472-0.745l-7.337-7.02c-1.354-1.296-3.318-1.723-5.089-1.114
	c-1.771,0.612-3.051,2.162-3.317,4.017l-1.183,8.248c-8.914-7.349-13.717-20.247-13.978-37.801c-0.016-1.051-0.362-2.07-0.99-2.913
	c-0.83-1.115-20.978-27.281-73.554-26.675c-2.1,0.025-3.954,1.367-4.65,3.349c-0.697,1.983-0.072,4.195,1.552,5.529
	c0.8,0.656,19.509,16.418,12.933,45.31c-0.322,1.415-0.004,2.902,0.857,4.072c0.86,1.17,2.195,1.908,3.643,2.022
	c1.2,0.096,29.398,2.678,30.088,33.413c0.062,2.761,2.368,4.952,5.111,4.887c1.351-0.03,2.56-0.6,3.44-1.49l0.004,0.004
	c2.67-2.707,7.479-5.128,22.922-2.555c2.572,0.428,4.787,1.206,6.699,2.215c-19.892,16.205-36.428,36.614-48.025,59.412
	C26.304,203.305,19.61,231.325,19.61,260.64c0,101.412,82.506,183.917,183.92,183.917c43.789,0,86.213-15.656,119.459-44.085
	c1.759-1.503,2.256-4.016,1.203-6.075c-1.053-2.059-3.379-3.126-5.629-2.584c-10.416,2.522-21.149,3.801-31.901,3.801
	c-54.336,0-103.401-32.869-124.362-82.493c15.914,1.332,36.132,9.136,48.164,37.01c0.816,1.89,2.658,3.02,4.593,3.02
	c0.661,0,1.334-0.132,1.979-0.41c1.241-0.535,2.148-1.517,2.628-2.674l0.003,0.002c0.007-0.017,0.015-0.034,0.022-0.051
	c0.005-0.013,0.011-0.024,0.016-0.036c2.789-6.641,9.323-14.226,36.233-20.245c14.71-3.293,25.696,2.089,32.324,7.182
	c8.437,6.481,12.301,14.053,12.753,16.078c0.521,2.327,2.586,3.909,4.875,3.909c0.361,0,0.728-0.039,1.097-0.121
	c2.694-0.603,4.391-3.276,3.788-5.972c-0.453-2.025-0.183-10.519,4.69-19.977c3.828-7.431,11.479-16.979,26.188-20.267
	c26.882-6.012,36.031-1.948,41.384,2.865c0.936,0.895,2.214,1.431,3.616,1.377c2.76-0.09,4.924-2.4,4.834-5.16
	c-1.777-54.507,47.939-61.688,50.046-61.965c1.446-0.185,2.74-0.991,3.542-2.209c0.803-1.218,1.033-2.726,0.632-4.127
	c-14.243-49.754,17.045-78.986,18.374-80.197C465.65,159.74,466.161,157.496,465.362,155.545z M82.473,105.865
	c-10.44-1.737-18.102-1.619-23.935,0.485C54.66,84.421,37.815,75.049,25.506,72.323c2.755-18.743-3.445-32.506-9.195-40.804
	c33.435,2.427,49.352,17.102,53.208,21.237c0.96,30.459,14.341,43.245,25.521,48.608c1.26,0.604,2.716,0.654,4.013,0.137
	c1.298-0.517,2.321-1.554,2.82-2.858l-0.015,0.043l0.086-0.19c0.186-0.419,0.312-0.861,0.377-1.314l0.833-5.807l1.468,1.404
	c0.824,0.789,1.815,1.265,2.951,1.361c0.431,0.051,6.395,1.046,6.716,1.114c1.105,0.274,2.273,0.164,3.307-0.314l1.843-0.853
	l-1.093,5.764c-0.08,0.423-0.105,0.854-0.075,1.283l0.027,0.276c0.058,1.39,0.693,2.692,1.753,3.596
	c1.059,0.901,2.443,1.317,3.828,1.16c12.317-1.451,29.125-9.214,39.904-37.737c4.968-2.706,24.578-11.48,57.216-2.834
	c-8.129,5.984-18.458,16.996-21.927,35.627c-12.529-1.412-31.501,2-42.275,21.488c-4.836-3.882-12.045-6.475-22.486-8.213
	c-11.942-1.99-20.513,2.805-25.599,7.176c-0.94,0.809-1.817,1.659-2.638,2.531C102.444,116.247,95.109,107.968,82.473,105.865z
	 M286.663,405.614c4.656,0,9.31-0.224,13.94-0.668c-28.547,19.204-62.358,29.611-97.073,29.611
	c-95.9,0-173.92-78.019-173.92-173.917c0-53.415,23.77-102.672,65.379-135.894c3.438,5.157,3.959,10.698,3.958,11.703
	c-0.005,2.965,1.385,5.33,4.112,5.748c3.019,0.463,5.047-1.465,5.751-4.105h0.001c0.335-1.748,7.763-16.424,23.858-13.731
	c15.437,2.569,19.204,6.416,20.853,9.841c1.199,2.488,4.187,3.535,6.674,2.336c1.218-0.587,2.084-1.605,2.517-2.78l0.007,0.003
	c10.612-28.853,38.127-22.159,39.275-21.867c1.41,0.373,2.912,0.111,4.113-0.717c1.201-0.827,1.981-2.137,2.135-3.587
	c0.897-8.421,3.404-15.151,6.545-20.486c31.085,1.978,60.391,11.974,85.883,29.235c-4.651-0.448-9.328-0.674-14.008-0.674
	c-65.06,0-121.879,43.132-139.49,105.353c-18.337,1.083-40.495,5.544-66.123,16.281c-1.94,0.813-3.159,2.756-3.056,4.857
	c0.103,2.102,1.516,3.916,3.527,4.536c1.731,0.533,42.492,13.657,50.795,64.737c0.233,1.436,1.085,2.696,2.325,3.457
	c1.24,0.762,2.754,0.943,4.14,0.5c0.623-0.198,5.559-1.709,12.722-2.277C173.051,368.583,226.891,405.614,286.663,405.614z
	 M434.732,238.873c-5.748,1.422-15.18,4.498-24.551,10.781c-12.363,8.29-26.682,23.714-28.533,51.12
	c-9.786-4.325-23.077-4.236-42.174,0.034c-18.482,4.133-28.091,16.119-32.897,25.446c-1.784,3.463-3.129,7.003-4.093,10.391
	c-2.314-2.655-5.039-5.285-8.128-7.658c-8.321-6.393-22.121-13.149-40.601-9.011c-19.092,4.27-31.153,9.852-38.167,17.931
	c-13.35-24.007-32.875-31.863-47.591-34.097c-11.155-1.694-20.997-0.458-26.804,0.702c-7.758-36.634-30.985-54.538-45.229-62.298
	c33.666-12.134,59.914-12.489,76.588-10.405c15.994,1.998,26.186,6.52,29.643,8.262c19.965,45.989,47.764,57.175,67.679,58.417
	c1.402,0.088,2.772-0.389,3.78-1.36c1.01-0.973,1.565-2.296,1.53-3.697l0.021-0.513c0.012-0.446-0.037-0.892-0.145-1.325
	l-3.924-15.854l9.224,3.666c1.059,0.42,2.19,0.48,3.278,0.144c0.62-0.176,10.939-2.483,11.54-2.583
	c1.128-0.16,2.167-0.701,2.946-1.533l6.782-7.245l3.206,16.02c0.084,0.42,0.222,0.827,0.409,1.212
	c0.064,0.131,0.132,0.261,0.2,0.391l0.042,0.076c0.569,1.277,1.647,2.259,2.972,2.704c1.325,0.444,2.777,0.317,4.003-0.355
	c17.491-9.607,37.88-31.574,36.353-81.687c5.065-6.487,32.292-37.231,97.028-43.305
	C439.539,176.327,426.148,202.419,434.732,238.873z"/>
</svg>